<svg width="224" height="50" viewBox="0 0 224 50" fill="none" xmlns="http://www.w3.org/2000/svg">
<path d="M31.8273 0.00494911C32.2144 0.00501068 32.5281 0.318856 32.528 0.705943L32.5267 9.05317C32.5267 9.44026 32.2128 9.75401 31.8257 9.75395L12.8756 9.75093C12.4885 9.75087 12.1747 10.0646 12.1746 10.4517L12.1732 19.5817C12.1731 19.9688 12.4868 20.2826 12.8739 20.2827L26.7005 20.2849C27.0876 20.285 27.4013 20.5988 27.4013 20.9859L27.4 29.0485C27.3999 29.4356 27.0861 29.7493 26.699 29.7492L12.8724 29.747C12.4853 29.747 12.1715 30.0607 12.1714 30.4478L12.1684 49.2556C12.1684 49.6427 11.8545 49.9565 11.4674 49.9564L0.70077 49.9547C0.313683 49.9546 -6.1553e-05 49.6408 9.05788e-09 49.2537L0.00772184 0.70077C0.00778341 0.313683 0.321629 -6.15532e-05 0.708715 9.05815e-09L31.8273 0.00494911Z" fill="url(#paint0_linear_1054_479)"/>
<path d="M41.194 9.75679C40.8069 9.75673 40.493 10.0705 40.493 10.4576L40.4916 19.1606C40.4915 19.5477 40.8053 19.8615 41.1923 19.8616L56.0863 19.864C56.4734 19.864 56.7872 20.1779 56.7871 20.565L56.7858 28.5564C56.7858 28.9435 56.4719 29.2572 56.0848 29.2571L41.1909 29.2548C40.8038 29.2547 40.4899 29.5685 40.4899 29.9555L40.4883 39.5125C40.4883 39.8996 40.802 40.2134 41.1891 40.2135L58.2179 40.2162C58.605 40.2163 58.9187 40.5301 58.9187 40.9172L58.9173 49.2644C58.9173 49.6515 58.6034 49.9653 58.2163 49.9652L29.0191 49.9606C28.632 49.9605 28.3183 49.6467 28.3184 49.2596L28.3261 0.706629C28.3261 0.319543 28.64 0.00579782 29.0271 0.00585938L58.2243 0.0105029C58.6114 0.0105645 58.9251 0.32441 58.9251 0.711497L58.9237 9.05873C58.9237 9.44582 58.6098 9.75956 58.2227 9.7595L41.194 9.75679Z" fill="url(#paint1_linear_1054_479)"/>
<path d="M81.9626 49.9704C81.7072 49.9704 81.472 49.8314 81.3488 49.6077L71.3619 31.4739C71.2387 31.2501 71.0035 31.1111 70.7481 31.1111L68.9454 31.1108C68.5584 31.1107 68.2445 31.4245 68.2445 31.8116L68.2417 49.2674C68.2416 49.6544 67.9278 49.9682 67.5407 49.9681L56.774 49.9664C56.3869 49.9664 56.0732 49.6525 56.0732 49.2654L56.081 0.712489C56.081 0.325402 56.3949 0.0116572 56.782 0.0117188L76.5041 0.0148553C80.4417 0.0154816 83.7861 0.703898 86.5374 2.08011C89.3362 3.45632 91.4232 5.35427 92.7986 7.77394C94.174 10.1462 94.8615 12.8029 94.861 15.7443C94.8605 19.0651 93.9112 22.03 92.0132 24.6389C90.3087 27.0418 87.8396 28.8007 84.606 29.9156C84.177 30.0635 83.9776 30.5656 84.206 30.9577L94.6686 48.9187C94.9408 49.386 94.6037 49.9724 94.0629 49.9723L81.9626 49.9704ZM68.246 21.7994C68.246 22.1865 68.5597 22.5003 68.9468 22.5004L75.7889 22.5015C78.0186 22.5018 79.6791 21.9565 80.7704 20.8656C81.9092 19.7746 82.4787 18.2329 82.479 16.2404C82.4793 14.3428 81.9103 12.8483 80.7719 11.757C79.6809 10.6657 78.0206 10.1199 75.7909 10.1195L68.9488 10.1185C68.5617 10.1184 68.2479 10.4321 68.2478 10.8192L68.246 21.7994Z" fill="url(#paint2_linear_1054_479)"/>
<path d="M117.544 49.9782C117.288 49.9782 117.053 49.8392 116.93 49.6155L106.943 31.4817C106.82 31.2579 106.585 31.1189 106.329 31.1189L104.526 31.1186C104.139 31.1186 103.826 31.4323 103.826 31.8194L103.823 49.2752C103.823 49.6623 103.509 49.976 103.122 49.9759L92.3551 49.9742C91.968 49.9742 91.6542 49.6603 91.6543 49.2732L91.662 0.720301C91.6621 0.333214 91.9759 0.0194697 92.363 0.0195313L112.085 0.0226679C116.023 0.0232941 119.367 0.711711 122.118 2.08792C124.917 3.46413 127.004 5.36208 128.38 7.78176C129.755 10.154 130.443 12.8108 130.442 15.7521C130.442 19.0729 129.492 22.0378 127.594 24.6467C125.89 27.0496 123.421 28.8085 120.187 29.9234C119.758 30.0713 119.559 30.5734 119.787 30.9655L130.25 48.9265C130.522 49.3938 130.185 49.9802 129.644 49.9802L117.544 49.9782ZM103.827 21.8072C103.827 22.1943 104.141 22.5081 104.528 22.5082L111.37 22.5093C113.6 22.5096 115.26 21.9643 116.351 20.8734C117.49 19.7824 118.06 18.2407 118.06 16.2482C118.06 14.3506 117.491 12.8561 116.353 11.7648C115.262 10.6735 113.602 10.1277 111.372 10.1274L104.53 10.1263C104.143 10.1262 103.829 10.4399 103.829 10.827L103.827 21.8072Z" fill="url(#paint3_linear_1054_479)"/>
<path d="M172.83 0.000627817C174.487 -0.000765145 175.316 -0.00146165 175.829 0.512358C176.343 1.02618 176.343 1.85476 176.341 3.51192C176.323 24.795 175.972 35.7792 169.06 42.6906C162.149 49.6021 151.165 49.9537 129.882 49.9716C128.224 49.973 127.396 49.9737 126.882 49.4599C126.368 48.9461 126.369 48.1175 126.37 46.4603C126.388 25.1773 126.74 14.1931 133.651 7.28163C140.563 0.370151 151.547 0.0185178 172.83 0.000627817ZM160.672 15.7045C158.924 13.9558 156.438 14.1904 151.467 14.6595C147.954 14.9911 145.603 15.7509 143.862 17.4923C142.121 19.2336 141.361 21.5843 141.029 25.0976C140.56 30.0685 140.325 32.554 142.074 34.3028C143.823 36.0515 146.308 35.817 151.279 35.3478C154.793 35.0162 157.143 34.2564 158.885 32.515C160.626 30.7737 161.386 28.423 161.717 24.9097C162.187 19.9388 162.421 17.4533 160.672 15.7045Z" fill="url(#paint4_linear_1054_479)"/>
<path d="M183.895 0.0373569C184.282 0.0374185 184.596 0.351264 184.596 0.738351L184.588 49.2913C184.588 49.6784 184.274 49.9921 183.887 49.9921L173.121 49.9903C172.734 49.9903 172.42 49.6764 172.42 49.2894L172.428 0.736414C172.428 0.349328 172.742 0.035583 173.129 0.0356445L183.895 0.0373569Z" fill="url(#paint5_linear_1054_479)"/>
<path d="M210.275 49.9978C210.02 49.9977 209.785 49.8587 209.661 49.635L199.674 31.5012C199.551 31.2775 199.316 31.1385 199.061 31.1384L197.258 31.1382C196.871 31.1381 196.557 31.4518 196.557 31.8389L196.554 49.2947C196.554 49.6818 196.24 49.9955 195.853 49.9955L185.087 49.9938C184.699 49.9937 184.386 49.6798 184.386 49.2928L184.393 0.739832C184.394 0.352746 184.707 0.0390009 185.094 0.0390625L204.817 0.0421991C208.754 0.0428253 212.099 0.731242 214.85 2.10745C217.649 3.48366 219.736 5.38161 221.111 7.80129C222.487 10.1735 223.174 12.8303 223.174 15.7716C223.173 19.0924 222.224 22.0573 220.326 24.6662C218.621 27.0692 216.152 28.8281 212.919 29.9429C212.49 30.0908 212.29 30.5929 212.518 30.985L222.981 48.946C223.253 49.4133 222.916 49.9998 222.375 49.9997L210.275 49.9978ZM196.559 21.8267C196.558 22.2138 196.872 22.5277 197.259 22.5277L204.101 22.5288C206.331 22.5292 207.992 21.9839 209.083 20.8929C210.222 19.802 210.791 18.2602 210.792 16.2678C210.792 14.3701 210.223 12.8757 209.084 11.7844C207.993 10.6931 206.333 10.1472 204.103 10.1469L197.261 10.1458C196.874 10.1457 196.56 10.4595 196.56 10.8466L196.559 21.8267Z" fill="url(#paint6_linear_1054_479)"/>
<defs>
<linearGradient id="paint0_linear_1054_479" x1="0" y1="24.9782" x2="32.5283" y2="24.9782" gradientUnits="userSpaceOnUse">
<stop stop-color="#6F992D"/>
<stop offset="1" stop-color="#25330F"/>
</linearGradient>
<linearGradient id="paint1_linear_1054_479" x1="28.3184" y1="24.9855" x2="58.9253" y2="24.9855" gradientUnits="userSpaceOnUse">
<stop stop-color="#6F992D"/>
<stop offset="1" stop-color="#25330F"/>
</linearGradient>
<linearGradient id="paint2_linear_1054_479" x1="95.2824" y1="24.9921" x2="56.073" y2="24.9921" gradientUnits="userSpaceOnUse">
<stop stop-color="#25330F"/>
<stop offset="1" stop-color="#6F992D"/>
</linearGradient>
<linearGradient id="paint3_linear_1054_479" x1="130.864" y1="24.9999" x2="91.6543" y2="24.9999" gradientUnits="userSpaceOnUse">
<stop stop-color="#25330F"/>
<stop offset="1" stop-color="#6F992D"/>
</linearGradient>
<linearGradient id="paint4_linear_1054_479" x1="126.37" y1="24.9861" x2="176.003" y2="24.9861" gradientUnits="userSpaceOnUse">
<stop stop-color="#97520D"/>
<stop offset="1" stop-color="#423429"/>
</linearGradient>
<linearGradient id="paint5_linear_1054_479" x1="184.596" y1="25.0139" x2="172.42" y2="25.0139" gradientUnits="userSpaceOnUse">
<stop stop-color="#25330F"/>
<stop offset="1" stop-color="#6F992D"/>
</linearGradient>
<linearGradient id="paint6_linear_1054_479" x1="223.595" y1="25.0194" x2="184.386" y2="25.0194" gradientUnits="userSpaceOnUse">
<stop stop-color="#25330F"/>
<stop offset="1" stop-color="#6F992D"/>
</linearGradient>
</defs>
</svg>
