<svg xmlns="http://www.w3.org/2000/svg" version="1.1" xmlns:xlink="http://www.w3.org/1999/xlink" width="1000" height="1000"><style>
    #light-icon {
      display: inline;
    }
    #dark-icon {
      display: none;
    }

    @media (prefers-color-scheme: dark) {
      #light-icon {
        display: none;
      }
      #dark-icon {
        display: inline;
      }
    }
  </style><g id="light-icon"><svg xmlns="http://www.w3.org/2000/svg" version="1.1" xmlns:xlink="http://www.w3.org/1999/xlink" width="1000" height="1000"><g><g transform="matrix(20.833333333333332,0,0,20.833333333333332,0,0)"><svg xmlns="http://www.w3.org/2000/svg" version="1.1" xmlns:xlink="http://www.w3.org/1999/xlink" width="48" height="48"><svg width="48" height="48" viewBox="0 0 48 48" fill="none" xmlns="http://www.w3.org/2000/svg">
<path d="M9.6496 18.8397C9.6496 9.94029 9.6496 5.49057 12.4016 2.74529C15.1536 0 19.6141 0 28.5353 0C28.5353 8.89943 28.5353 13.3491 25.7833 16.0944C23.0313 18.8397 18.5707 18.8397 9.6496 18.8397Z" fill="#132E49"></path>
<path d="M0 47.3749C0 35.5018 0 29.5652 3.66261 25.9026C7.32523 22.24 13.2618 22.24 25.1349 22.24C25.1349 34.1131 25.1349 40.0497 21.4723 43.7123C17.8097 47.3749 11.8731 47.3749 0 47.3749Z" fill="#25330F"></path>
<path d="M32.533 13.8312C32.533 7.88374 32.533 4.91003 34.3676 3.07538C36.2023 1.24072 39.176 1.24072 45.1234 1.24072C45.1234 7.18815 45.1234 10.1619 43.2888 11.9965C41.4541 13.8312 38.4804 13.8312 32.533 13.8312Z" fill="#65210C"></path>
<path d="M28.5353 38.9659C28.5353 30.0665 28.5353 25.6168 31.2806 22.8715C34.0259 20.1262 38.4756 20.1262 47.375 20.1262C47.375 29.0257 47.375 33.4754 44.6297 36.2207C41.8844 38.9659 37.4347 38.9659 28.5353 38.9659Z" fill="#FD8916"></path>
</svg></svg></g></g></svg></g><g id="dark-icon"><svg xmlns="http://www.w3.org/2000/svg" version="1.1" xmlns:xlink="http://www.w3.org/1999/xlink" width="1000" height="1000"><g clip-path="url(#SvgjsClipPath1017)"><rect width="1000" height="1000" fill="#ffffff"></rect><g transform="matrix(10.416666666666666,0,0,10.416666666666666,250,250)"><svg xmlns="http://www.w3.org/2000/svg" version="1.1" xmlns:xlink="http://www.w3.org/1999/xlink" width="48" height="48"><svg width="48" height="48" viewBox="0 0 48 48" fill="none" xmlns="http://www.w3.org/2000/svg">
<path d="M9.6496 18.8397C9.6496 9.94029 9.6496 5.49057 12.4016 2.74529C15.1536 0 19.6141 0 28.5353 0C28.5353 8.89943 28.5353 13.3491 25.7833 16.0944C23.0313 18.8397 18.5707 18.8397 9.6496 18.8397Z" fill="#132E49"></path>
<path d="M0 47.3749C0 35.5018 0 29.5652 3.66261 25.9026C7.32523 22.24 13.2618 22.24 25.1349 22.24C25.1349 34.1131 25.1349 40.0497 21.4723 43.7123C17.8097 47.3749 11.8731 47.3749 0 47.3749Z" fill="#25330F"></path>
<path d="M32.533 13.8312C32.533 7.88374 32.533 4.91003 34.3676 3.07538C36.2023 1.24072 39.176 1.24072 45.1234 1.24072C45.1234 7.18815 45.1234 10.1619 43.2888 11.9965C41.4541 13.8312 38.4804 13.8312 32.533 13.8312Z" fill="#65210C"></path>
<path d="M28.5353 38.9659C28.5353 30.0665 28.5353 25.6168 31.2806 22.8715C34.0259 20.1262 38.4756 20.1262 47.375 20.1262C47.375 29.0257 47.375 33.4754 44.6297 36.2207C41.8844 38.9659 37.4347 38.9659 28.5353 38.9659Z" fill="#FD8916"></path>
</svg></svg></g></g><defs><clipPath id="SvgjsClipPath1017"><rect width="1000" height="1000" x="0" y="0" rx="0" ry="0"></rect></clipPath></defs></svg></g></svg>